# AST/ASF file generated using VICON BodyLanguage
# -----------------------------------------------
:version 1.10
:name VICON
:units
  mass 1.0
  length 0.45
  angle deg
:documentation
   .ast/.asf automatically generated from VICON data using
   VICON BodyBuilder and BodyLanguage model FoxedUp or BRILLIANT.MOD
:root
   order TX TY TZ RX RY RZ
   axis XYZ
   position 0 0 0  
   orientation 0 0 0 
:bonedata
  begin
     id 1 
     name lhipjoint
     direction 0.623529 -0.717805 0.309788 
     length 2.23224 
     axis 0 0 0  XYZ
  end
  begin
     id 2 
     name lfemur
     direction 0.34202 -0.939693 0  
     length 7.11402  
     axis 0 0 20  XYZ
    dof rx ry rz
    limits (-160.0 20.0)
           (-70.0 70.0)
           (-60.0 70.0)
  end
  begin
     id 3 
     name ltibia
     direction 0.34202 -0.939693 0   
     length 6.78496   
     axis 0 0 20   XYZ
    dof rx
    limits (-10.0 170.0)
  end
  begin
     id 4 
     name lfoot
     direction 0.125078 -0.343648 0.930732   
     length 1.84054   
     axis -90 7.62852e-016 20   XYZ
    dof rx rz
    limits (-45.0 90.0)
           (-70.0 20.0)
  end
  begin
     id 5 
     name ltoes
     direction 1.53565e-011 -4.21893e-011 1   
     length 0.916474   
     axis -90 7.62852e-016 20   XYZ
    dof rx
    limits (-90.0 20.0)
  end
  begin
     id 6 
     name rhipjoint
     direction -0.564688 -0.757748 0.327026   
     length 2.11457  
     axis 0 0 0  XYZ 
  end
  begin
     id 7 
     name rfemur
     direction -0.34202 -0.939693 0   
     length 7.14609   
     axis 0 0 -20   XYZ
    dof rx ry rz
    limits (-160.0 20.0)
           (-70.0 70.0)
           (-70.0 60.0)
  end
  begin
     id 8 
     name rtibia
     direction -0.34202 -0.939693 0   
     length 6.78101   
     axis 0 0 -20   XYZ
    dof rx
    limits (-10.0 170.0)
 end
 begin
     id 9 
     name rfoot
     direction -0.0992671 -0.272734 0.956955   
     length 1.96168  
     axis -90 -7.62852e-016 -20   XYZ
    dof rx rz
    limits (-45.0 90.0)
           (-20.0 70.0)
  end
  begin
     id 10 
     name rtoes
     direction -1.5356e-011 -4.21891e-011 1   
     length 0.982933   
     axis -90 -7.62852e-016 -20   XYZ
    dof rx
    limits (-90.0 20.0)
  end
  begin
     id 11 
     name lowerback
     direction -0.00596953 0.998668 0.0512524   
     length 1.87557   
     axis 0 0 0   XYZ
    dof rx ry rz
    limits (-20.0 45.0)
           (-30.0 30.0)
           (-30.0 30.0)
  end
  begin
     id 12 
     name upperback
     direction 0.00584879 0.999652 0.0257308   
     length 1.87883   
     axis 0 0 0   XYZ
    dof rx ry rz
    limits (-20.0 45.0)
           (-30.0 30.0)
           (-30.0 30.0)
  end
  begin
     id 13 
     name thorax
     direction 0.010104 0.999947 0.00178881   
     length 1.87779   
     axis 0 0 0   XYZ
    dof rx ry rz
    limits (-20.0 45.0)
           (-30.0 30.0)
           (-30.0 30.0)
  end
  begin
     id 14 
     name lowerneck
     direction 0.0120771 0.995934 -0.0892773   
     length 1.40897   
     axis 0 0 0   XYZ
    dof rx ry rz
    limits (-20.0 45.0)
           (-30.0 30.0)
           (-30.0 30.0)
  end
  begin
     id 15 
     name upperneck
     direction -0.030568 0.999465 -0.0116366   
     length 1.38661   
     axis 0 0 0   XYZ
    dof rx ry rz
    limits (-20.0 45.0)
           (-30.0 30.0)
           (-30.0 30.0)
  end
  begin
     id 16
     name head
     direction -0.0170715 0.999854 -0.00104426  
     length 1.47052  
     axis 0 0 0   XYZ
    dof rx ry rz
    limits (-20.0 45.0)
           (-30.0 30.0)
           (-30.0 30.0)
  end
  begin
     id 17 
     name lclavicle
     direction 0.977763 0.206143 0.038532  
     length 3.02424  
     axis 0 0 0   XYZ
    dof ry rz
    limits (-20.0 10.0)
           (0.0 20.0)
  end
  begin
     id 18 
     name lhumerus
     direction 1 -4.48965e-011 -2.62654e-027   
     length 4.68382   
     axis 180 -30 -90   XYZ
    dof rx ry rz
    limits (-60.0 90.0)
           (-90.0 90.0)
           (-90.0 90.0)
  end
  begin
     id 19
     name lradius
     direction 1 -4.48973e-011 -1.54954e-027   
     length 2.98124   
     axis 180 -30 -90   XYZ
    dof rx
    limits (-10.0 170.0)
  end
  begin
     id 20
     name lwrist
     direction 1 -4.48959e-011 7.20928e-028   
     length 1.49062   
     axis -5.52449e-016 90 90   XYZ
    dof ry
    limits (-180.0 0.0)
 end
  begin
     id 21 
     name lhand
     direction 1 -4.48971e-011 1.44186e-027   
     length 0.707595   
     axis -9.20027e-016 90 90   XYZ
    dof rx rz
    limits (-90.0 90.0)
           (-45.0 45.0)
  end
  begin
     id 22 
     name lfingers
     direction 1 -4.48985e-011 2.88371e-027   
     length 0.570481   
     axis -1.84005e-015 90 90   XYZ
    dof rx
    limits (0.0 90.0)
  end
  begin
     id 23
     name lthumb
     direction 0.707107 -6.34929e-011 0.707107   
     length 0.819101   
     axis -90 45 2.85299e-015   XYZ
    dof rx rz
    limits (-45.0 45.0)
           (-45.0 45.0)
  end
  begin
     id 24 
     name rclavicle
     direction -0.958661 0.284411 -0.00895327   
     length 3.11921  
     axis 0 0 0   XYZ 
    dof ry rz
    limits (-10.0 20.0)
           (-20.0 0.0)
  end
  begin
     id 25 
     name rhumerus
     direction -1 -4.48963e-011 -4.22193e-027  
     length 4.75876   
     axis 180 30 90   XYZ
    dof rx ry rz
    limits (-90.0 60.0)
           (-90.0 90.0)
           (-90.0 90.0)
  end
  begin
     id 26 
     name rradius
     direction -1 -4.48968e-011 -1.07616e-027   
     length 2.93293   
     axis 180 30 90   XYZ
    dof rx
    limits (-10.0 170.0)
  end
  begin
     id 27 
     name rwrist
     direction -1 -4.48965e-011 7.20928e-028   
     length 1.46647   
     axis -5.52449e-016 -90 -90   XYZ
    dof ry
    limits (-180.0 0.0)
  end
  begin
     id 28
     name rhand
     direction -1 -4.48971e-011 1.44186e-027   
     length 0.831748   
     axis -9.20027e-016 -90 -90   XYZ
    dof rx rz
    limits (-90.0 90.0)
           (-45.0 45.0)
  end
  begin
     id 29
     name rfingers
     direction -1 -4.48961e-011 2.88371e-027   
     length 0.670577   
     axis -1.84005e-015 -90 -90   XYZ
    dof rx
    limits (0.0 90.0)
  end
  begin
     id 30
     name rthumb
     direction -0.707107 -6.34929e-011 0.707107   
     length 0.962818   
     axis -90 -45 -2.85299e-015   XYZ
    dof rx rz
    limits (-45.0 45.0)
           (-45.0 45.0)
  end
:hierarchy
  begin
    root lhipjoint rhipjoint lowerback
    lhipjoint lfemur
    lfemur ltibia
    ltibia lfoot
    lfoot ltoes
    rhipjoint rfemur
    rfemur rtibia
    rtibia rfoot
    rfoot rtoes
    lowerback upperback
    upperback thorax
    thorax lowerneck lclavicle rclavicle
    lowerneck upperneck
    upperneck head
    lclavicle lhumerus
    lhumerus lradius
    lradius lwrist
    lwrist lhand lthumb
    lhand lfingers
    rclavicle rhumerus
    rhumerus rradius
    rradius rwrist
    rwrist rhand rthumb
    rhand rfingers
  end

#!OML:ASF E:\id_vita\Project 1\Capture day 1\Session 1\Female.ASF
:FULLY-SPECIFIED
:DEGREES
44
root -18.9762 16.5811 -1.35829 -162.973 -81.7523 184.403
lowerback -10.6715 1.18818 -2.47959
upperback -2.81825 1.77583 -0.990043
thorax 2.99689 0.826978 0.596479
lowerneck 3.35154 4.58581 1.87592
upperneck 13.735 5.99819 -2.22968
head 4.04813 2.80492 -0.925354
rclavicle -1.99779e-014 1.86858e-014
rhumerus -27.7468 8.43639 -100.434
rradius 20.2148
rwrist 12.0459
rhand -3.69672 6.726
rfingers 7.12502
rthumb 22.0452 -22.0375
lclavicle -1.99779e-014 1.86858e-014
lhumerus -31.0371 49.0156 69.1811
lradius 9.71939
lwrist -78.4812
lhand -4.59586 24.5231
lfingers 7.12502
lthumb 21.1817 53.3859
rfemur -27.9566 13.3923 16.1709
rtibia 19.4852
rfoot 3.10537 -26.8632
rtoes -10.1955
lfemur -29.7205 -14.5679 -8.86931
ltibia 23.7317
lfoot -10.6519 18.2119
ltoes -5.5472
45
root -18.9692 16.5795 -1.37218 -163.248 -81.9173 184.901
lowerback -10.6152 1.19 -2.38164
upperback -2.76088 1.77035 -0.985923
thorax 3.02879 0.82534 0.544612
lowerneck 3.33568 4.48974 2.10871
upperneck 13.5839 5.90513 -2.53345
head 4.01626 2.76295 -1.06988
rclavicle 2.01766e-014 1.82882e-014
rhumerus -27.519 8.2505 -100.409
rradius 20.1759
rwrist 12.3384
rhand -4.24904 7.04195
rfingers 7.12502
rthumb 21.5148 -21.7831
lclavicle 2.01766e-014 1.82882e-014
lhumerus -30.2871 48.8198 69.9956
lradius 9.65367
lwrist -78.247
lhand -4.47472 24.6505
lfingers 7.12502
lthumb 21.298 53.5002
rfemur -28.185 13.6005 16.1641
rtibia 19.4315
rfoot 2.45867 -27.5747
rtoes -7.56106
lfemur -30.1151 -14.0224 -8.82394
ltibia 23.9441
lfoot -10.8767 17.6381
ltoes -5.85427
46
root -18.9538 16.5775 -1.38969 -164.417 -82.3142 186.432
lowerback -10.5443 1.1357 -2.15702
upperback -2.76465 1.67099 -0.905578
thorax 2.99277 0.778256 0.487493
lowerneck 3.38468 4.50859 2.71663
upperneck 13.4393 5.99337 -3.11153
head 4.00845 2.81851 -1.3683
rclavicle 2.88238e-015 -1.51076e-014
rhumerus -27.5234 8.05073 -100.337
rradius 20.33
rwrist 12.5929
rhand -5.56933 7.99421
rfingers 7.12502
rthumb 20.2463 -20.9706
lclavicle 2.88238e-015 -1.51076e-014
lhumerus -29.7033 48.5947 70.7438
lradius 9.68027
lwrist -78.0041
lhand -4.48252 24.8322
lfingers 7.12502
lthumb 21.2905 53.6828
rfemur -28.5477 13.8396 16.2846
rtibia 19.3491
rfoot 3.76646 -27.5389
rtoes -9.76432
lfemur -30.8319 -14.0052 -8.32216
ltibia 24.2094
lfoot -11.05 17.4134
ltoes -5.78281
47
root -18.9479 16.5742 -1.40529 -166.121 -82.6207 188.33
lowerback -10.4204 1.12315 -1.93729
upperback -2.72573 1.62799 -0.776518
thorax 2.96871 0.759746 0.490258
lowerneck 3.3699 4.3394 2.275
upperneck 13.2674 5.7522 -2.93786
head 3.91469 2.68863 -1.23989
rclavicle 8.24956e-015 5.24792e-014
rhumerus -27.5988 8.14582 -100.233
rradius 20.4859
rwrist 12.5633
rhand -5.04367 7.50203
rfingers 7.12502
rthumb 20.7515 -21.4084
lclavicle 8.24956e-015 5.24792e-014
lhumerus -29.3392 48.3195 71.4129
lradius 9.73
lwrist -77.7283
lhand -4.59927 24.9461
lfingers 7.12502
lthumb 21.1784 53.8093
rfemur -28.6914 14.0832 16.4709
rtibia 19.2539
rfoot 2.61415 -28.5399
rtoes -6.183
lfemur -31.3101 -13.8992 -7.90886
ltibia 24.4813
lfoot -11.1831 17.1526
ltoes -5.14389
48
root -18.9422 16.5727 -1.41644 -168.067 -82.8733 190.47
lowerback -10.2877 1.11894 -1.63623
upperback -2.70961 1.58786 -0.686854
thorax 2.91927 0.742815 0.40642
lowerneck 3.29949 4.30501 2.21329
upperneck 13.2832 5.70105 -2.87844
head 3.92691 2.66262 -1.20921
rclavicle -1.49089e-015 -2.0276e-014
rhumerus -27.5599 8.1966 -100.198
rradius 20.4846
rwrist 12.5208
rhand -5.52433 7.71376
rfingers 7.12502
rthumb 20.2896 -21.2465
lclavicle -1.49089e-015 -2.0276e-014
lhumerus -28.8623 48.0873 72.0674
lradius 9.69789
lwrist -77.5661
lhand -4.42645 25.0918
lfingers 7.12502
lthumb 21.3444 53.9363
rfemur -28.8774 14.1499 16.7417
rtibia 19.2287
rfoot 4.12903 -28.1757
rtoes -9.8169
lfemur -31.6286 -13.456 -7.65302
ltibia 24.6952
lfoot -11.3169 16.7252
ltoes -4.37585
49
root -18.9357 16.5711 -1.43107 -169.148 -83.0141 191.684
lowerback -10.1187 1.07776 -1.50915
upperback -2.67958 1.51781 -0.624106
thorax 2.86035 0.710219 0.388221
lowerneck 3.48574 4.24376 1.67564
upperneck 12.8838 5.58627 -2.51388
head 3.70992 2.60293 -1.00296
rclavicle -1.18277e-014 1.15295e-014
rhumerus -27.5892 8.68522 -100.385
rradius 20.561
rwrist 11.9525
rhand -5.88632 7.78854
rfingers 7.12502
rthumb 19.9416 -21.2083
lclavicle -1.18277e-014 1.15295e-014
lhumerus -28.5093 47.9574 72.5473
lradius 9.7436
lwrist -77.4132
lhand -4.09062 25.241
lfingers 7.12502
lthumb 21.6669 54.0487
rfemur -29.0567 14.0167 16.9761
rtibia 19.2869
rfoot 3.06118 -28.6409
rtoes -7.1078
lfemur -31.845 -13.3798 -7.41402
ltibia 24.8617
lfoot -11.3948 16.5691
ltoes -6.06279
50
root -18.9282 16.5701 -1.44396 -167.651 -83.0231 190.316
lowerback -9.93658 1.02072 -1.74836
upperback -2.62464 1.46704 -0.653434
thorax 2.8123 0.685436 0.483061
lowerneck 3.16242 4.27434 2.1411
upperneck 12.9308 5.67837 -2.97495
head 3.82667 2.65319 -1.22762
rclavicle 1.88845e-014 3.61788e-014
rhumerus -27.136 9.47369 -100.681
rradius 20.2591
rwrist 11.2405
rhand -5.82806 7.5739
rfingers 7.12502
rthumb 19.9976 -21.4171
lclavicle 1.88845e-014 3.61788e-014
lhumerus -28.1331 47.8605 73.0212
lradius 9.8195
lwrist -77.1559
lhand -3.8923 25.2424
lfingers 7.12502
lthumb 21.8574 54.0279
rfemur -29.3133 13.9777 16.8064
rtibia 19.4083
rfoot 4.19162 -28.128
rtoes -9.93211
lfemur -32.0837 -13.4195 -7.4702
ltibia 24.9908
lfoot -11.5388 16.6058
ltoes -6.84146
51
root -18.9255 16.5691 -1.45681 -165.619 -82.978 188.463
lowerback -9.86172 1.05428 -1.99914
upperback -2.59628 1.53948 -0.749578
thorax 2.79469 0.720867 0.531886
lowerneck 3.3196 4.21457 1.83355
upperneck 12.7437 5.55628 -2.53674
head 3.69705 2.599 -1.03567
rclavicle 3.18055e-015 -3.85642e-014
rhumerus -27.1238 9.87703 -100.81
rradius 20.3391
rwrist 10.9903
rhand -5.90377 7.59396
rfingers 7.12502
rthumb 19.9249 -21.4046
lclavicle 3.18055e-015 -3.85642e-014
lhumerus -27.4709 47.5931 73.7646
lradius 9.69867
lwrist -76.8189
lhand -4.09202 25.1944
lfingers 7.12502
lthumb 21.6656 54.0022
rfemur -29.657 14.1346 16.4857
rtibia 19.586
rfoot 2.84406 -29.0009
rtoes -6.56988
lfemur -32.329 -13.1138 -7.71219
ltibia 25.0806
lfoot -11.7118 16.3956
ltoes -7.39419
52
root -18.9257 16.5624 -1.47367 -165.609 -83.0998 188.732
lowerback -9.99187 1.0753 -1.99344
upperback -2.52604 1.57371 -0.760084
thorax 2.9391 0.73675 0.525577
lowerneck 2.8494 4.21348 1.79847
upperneck 13.0442 5.55065 -2.46436
head 3.88801 2.59157 -0.995042
rclavicle 1.54058e-014 -1.59028e-015
rhumerus -27.5125 10.0979 -100.811
rradius 20.8866
rwrist 10.9234
rhand -6.10594 7.71693
rfingers 7.12502
rthumb 19.7305 -21.3017
lclavicle 1.54058e-014 -1.59028e-015
lhumerus -26.6671 47.3159 74.6185
lradius 9.57341
lwrist -76.507
lhand -4.63502 25.2176
lfingers 7.12502
lthumb 21.1441 54.0846
rfemur -30.0603 14.5594 16.3211
rtibia 19.8317
rfoot 4.02311 -29.0241
rtoes -9.18546
lfemur -32.7539 -12.7118 -7.62645
ltibia 25.1574
lfoot -12.0254 16.0574
ltoes -5.35303
53
root -18.9218 16.554 -1.48838 -167.837 -83.4221 191.225
lowerback -10.0586 1.0415 -1.6913
upperback -2.45464 1.50171 -0.699552
thorax 3.05824 0.702331 0.412072
lowerneck 1.9398 4.41914 1.09821
upperneck 13.8684 5.7415 -1.58532
head 4.3025 2.66974 -0.551112
rclavicle 1.09332e-014 -4.77083e-015
rhumerus -27.2192 11.151 -100.938
rradius 20.9428
rwrist 9.91685
rhand -6.1569 7.58617
rfingers 7.12502
rthumb 19.6815 -21.4375
lclavicle 1.09332e-014 -4.77083e-015
lhumerus -26.1188 47.0275 75.1901
lradius 9.62278
lwrist -76.2177
lhand -4.9229 25.1913
lfingers 7.12502
lthumb 20.8675 54.089
rfemur -30.418 14.8728 16.4704
rtibia 20.1152
rfoot 2.35784 -30.1696
rtoes -4.71687
lfemur -33.219 -12.3074 -7.25628
ltibia 25.2592
lfoot -11.8833 15.4426
ltoes -5.75505
